<svg id="Layer_1" data-name="Layer 1" xmlns="http://www.w3.org/2000/svg" viewBox="0 0 2550 2556"><defs><style>.cls-1{fill:#1391c9;}.cls-2{fill:#003b60;}</style></defs><path class="cls-1" d="M927.57,1186.09H1055.5v37.84h-41.94v163.93h-45.1V1223.93H927.57Z"/><path class="cls-1" d="M1071.14,1186.09h45.1v81.45h49.3v-81.45h45.11v201.77h-45.11v-82.48h-49.3v82.48h-45.1Z"/><path class="cls-1" d="M1249.43,1186.09h124.78v34.59h-79.68v46.86h61.94v34.59h-61.94v49.66h79.68v36.07H1249.43Z"/><path class="cls-2" d="M1439.08,1061.4h113.35q39.88,0,60.2,6.22t34.06,27.26q13.74,21,13.74,52.38,0,54.77-47.43,70.31,56.43,19.62,56.43,80.12,0,31.82-15.32,53.7t-37.83,29.18q-22.5,7.29-63.85,7.29H1439.08Zm70.05,131.78h23.6q35.26,0,44.39-12.44a46.86,46.86,0,0,0,9.12-28.46,41.64,41.64,0,0,0-9.12-26.43q-9.12-11.6-39-11.6h-28.95Zm0,138.72h35.76q50.35,0,50.35-42.7,0-23.75-12.53-33.45t-37.82-9.71h-35.76Z"/><path class="cls-2" d="M1946.73,1224.51q0,168.38-120.41,168.37-59.83,0-90.24-42.93t-30.41-125.44q0-168.13,120.41-168.13,58.86,0,89.75,42.09T1946.73,1224.51Zm-76.87,0q0-66-10.46-87.89t-33.32-21.89q-22.62,0-33.08,22t-10.46,87.77q0,64.58,10.34,87.3t33.2,22.72q22.62,0,33.2-21.77T1869.86,1224.51Z"/><path class="cls-2" d="M1997.56,1061.4h113.35q39.9,0,60.21,6.22t34.05,27.26q13.74,21,13.74,52.38,0,54.77-47.43,70.31,56.43,19.62,56.43,80.12,0,31.82-15.32,53.7t-37.83,29.18q-22.5,7.29-63.85,7.29H1997.56Zm70.06,131.78h23.59q35.26,0,44.39-12.44a46.86,46.86,0,0,0,9.12-28.46,41.64,41.64,0,0,0-9.12-26.43q-9.12-11.6-39-11.6h-28.94Zm0,138.72h35.75q50.36,0,50.35-42.7,0-23.75-12.52-33.45t-37.83-9.71h-35.75Z"/><path class="cls-2" d="M928.5,1482h74.65L1038,1707.73,1081.5,1482h66.89l41,227.09L1230,1482h61.43l-71.27,328.13h-65.43l-44.27-227-45.24,227h-64.7Z"/><path class="cls-2" d="M1318.9,1482h73v326.46h-73Z"/><path class="cls-2" d="M1454.63,1482h73v265.23h107v61.23h-180Z"/><path class="cls-2" d="M1666.74,1482h73v265.23h107v61.23h-180Z"/><path class="cls-2" d="M1878.84,1482h73v326.46h-73Z"/><path class="cls-2" d="M2217.68,1553l-60.33,22.72q-12.88-40.41-47.19-40.42-16,0-25.41,9t-9.37,20.93a26.19,26.19,0,0,0,11.07,22.12q11.07,8.25,46.34,21.65,32.1,11.71,50.47,23.19a87.27,87.27,0,0,1,29.67,31.22q11.31,19.73,11.31,45.8,0,45.67-32,75t-85.74,29.3q-90.26,0-115.3-89.68l63.73-17.94q11.67,49.28,53.27,49.27,19,0,30.77-9.69t11.8-25.47a31.65,31.65,0,0,0-8.27-21.41q-8.28-9.43-37.95-20-38.19-13.38-56.92-24.27t-30.89-31.09q-12.16-20.22-12.16-46,0-44,28.82-72.11t76.26-28.1Q2196.27,1476.94,2217.68,1553Z"/><path class="cls-1" d="M1167.6,2106.77H1059.36V2229H960.12V1902.52H1200.2v77.73H1059.36v53.09H1167.6Z"/><path class="cls-1" d="M1510.29,1902.52v216.2q0,61.47-37.1,88.38T1376.5,2234q-62.74,0-100.82-25.83T1237.61,2124V1902.52h103.62v209.75q0,23.43,10.07,34.2t32.14,10.76q18.43,0,30.2-7.77t14.07-17.58q2.31-9.81,2.31-38.27V1902.52Z"/><path class="cls-1" d="M1857.1,2229h-82.94l-90.94-144.24q-17.51-27.75-35.3-67.42,8,31.56,8,53.57V2229h-82.7V1902.52h96.33l77.35,119.57q23.11,35.64,35,62.67a467.19,467.19,0,0,1-7.78-85.62v-96.62h82.94Z"/><path class="cls-1" d="M1923.46,2229V1902.52H2051.9q83.67,0,125.27,48.79t41.59,112.88q0,73.18-44.64,119t-115.9,45.8Zm101.92-75.1h26.52q25.29,0,42.68-24.15T2112,2064q0-35.64-15.45-61.47t-44.63-25.83h-26.52Z"/><path class="cls-1" d="M515.49,793l-.2,0,.41-.07Zm-10,.52h0l-.12,0Z"/><path class="cls-1" d="M648.23,466.09c-6.74-5.85-15.34-8.19-23.69-10.2C553.71,443.06,460.37,448.27,424,519.6c-27.25,58.49,20.44,124.15,32.89,171.13-8.8,3-21.84,10.29-29,16.21,7.75,20.17,1.77,26.51-17.17,32.35.92.26,1.83.51,2.74.78s1.76.5,2.63.77l3,.91c1.3.41,2.6.83,3.88,1.26l1.43.49,1.91.67,1.47.52c.53.19,1.05.38,1.58.59s1.15.42,1.72.64c.94.35,1.88.72,2.81,1.09l2,.8c.45.17.89.36,1.34.55l1.68.72c.33.13.67.27,1,.43l2,.9c.9.4,1.8.81,2.69,1.23l1.53.73,1.46.71,1.86.93.56.28,2.16,1.12c.83.43,1.65.88,2.47,1.33l1.44.8c.54.3,1.08.6,1.61.91l1.07.62c.56.33,1.11.65,1.66,1s.95.57,1.42.86c1.68,1,3.33,2.08,4.95,3.16.41.27.83.55,1.24.84.63.42,1.26.85,1.88,1.29q2.82,2,5.5,4l1.24,1,1.64,1.31c1.1.88,2.17,1.78,3.23,2.69.87.74,1.73,1.49,2.57,2.26a.52.52,0,0,1,.11.1c.76.67,1.5,1.36,2.24,2.06l.45.43c.78.72,1.54,1.46,2.29,2.21l0,.05.05,0c4.94,5,10.05,10.13,14.38,10.89h.12l.83.11h.08l.67.06h.09l.12,0a27,27,0,0,0,3.05.16l.84,0h.19l1.31-.07c.37,0,.73,0,1.09-.09l1-.11.16,0c.74-.1,1.41-.21,2-.32h0l.2,0,.21,0,1.48-.3,1-.23h.12l1.45-.36.34-.09,1.07-.3,1.45-.43,1.51-.48,1.57-.52,1.64-.58c.58-.2,1.15-.41,1.72-.63l1.8-.69,1.89-.74h0c6.71-2.65,13.79-5.82,22.28-10,24.37-12.14,49.25-29.41,76-52.77q1.85-1.69,3.71-3.37c14.91-13.5,29-26.25,36.31-42.63l.1-.22c.45-1,.87-2,1.26-2.92.13-.33.26-.65.38-1,.4-1,.76-2.1,1.09-3.15q.4-1.31.75-2.61c.25-1,.48-1.92.68-2.88.07-.32.13-.63.19-.95l.18-1c.12-.64.22-1.27.31-1.91s.21-1.53.3-2.3c-7.39,5.47-15,10.47-22.2,12.54.11-2.74.23-.87,2.4-5s5.42-11.12,8.3-18.31c3.71-9.22,8-18.71,11.87-28.48v0c2.39-6,4.62-12.13,6.47-18.34v0c.4-1.32.78-2.65,1.13-4,0,0,0,0,0,0A133.5,133.5,0,0,0,687,584.4h0C692.7,542.37,679.79,494.37,648.23,466.09Zm-191,224.53-.15,0c-.25-1.15-.57-2.59-.6-2.85.09.26.32,1.12.5,1.8,0-.13-.06-.24-.07-.32l.07.23c.52,1.91,0-.33.43,1Z"/><path class="cls-1" d="M710.71,1005c-.81,55,.77,110.42,3,165.46-5.29,4.72-10.61,9.39-15.92,14.1,6.82,1.64,13.65,3.32,20.48,4.94A238.11,238.11,0,0,1,740,1226.37c1.21,2.55,2.91,7.54,4.57,10.23-2.88-.76-5.7-1.48-8.5-2.16,2.68.73,5.4,1.51,8.15,2.31,4.87,21.84,9.21,22.11,9.46,50.68.14,15.21-5,55.9-21.85,76.89-8.9,11.1-27.87,33.18-43.56,42.06-16.74,10.67-35.34,22.62-43.22,42.37-4.32,10.82-4.08,22.92-3.9,34.55,5.4,75.26,6.56,149.93,14.38,225.62,3.31,30.2,5.32,66.36,3.5,99.26-11.32-.29-12.7-1.6-24-2-1.94,7.25-5.91,18.66-2.63,26a17.72,17.72,0,0,0,3.16,4.17c13.42,14.87,25.51,49.44,19.09,69.54-10.69,26.13-50.8,33.28-74.42,20.2-6.93-3.56-12.55-8.61-15.84-15.61-7.76-16.47-2.06-42.6,5-58.28,1-2.28,2-4.67,3.15-6.9,1.57-3,3.39-5.52,2.63-9.06-1.91-6-4.24-11.93-5.14-18.24-4.85,1.6-8.79,5.14-13.31,7.54-2.56,1.52-5.22.87-4.8-2.48,2.42-25.26-2.25-50.19-2.84-75.57-1.31-55.15-4.51-110.5-4.78-165.68-9.55,93.72-21.85,200.18-27.16,289.7-4.16,76.37-2.32,141.51.08,215-10.38-2.82-20.7-2.89-31.29-2.42-3.62,0-6.52,2-5.87,5.86a155.36,155.36,0,0,0,2.64,17.65c.78,4.2,1.12,8,3.31,12.07,4.55,8.44,12.93,11.88,19,18.83,18.54,21,10.79,53.71-9.27,71-55.12,52-131.65-10.23-97.34-57.88,3.54-4.63,8.28-8.19,12.2-12.5,8-8.84,9.85-23.12,3.29-33.36-10.55,5.34-18.87,12.54-26.45,21.8-.15.18,0-1.16-.32-1.64-8.64-11.78.47-87.73.73-92.34,5.55-88.87,8.59-157,12.26-246.52,8.58-100.82-1.2-186.53-13.11-295-4.84-43.67-9.54-132.39-13.35-185.14-.73-10.21-6.36-33.87-.79-44a90.25,90.25,0,0,1,8.87-13.06,16.34,16.34,0,0,0,2.45-4c2.76-6.82,4.48-13,3.55-20.49-1-8.1-3.78-14.9-7-22.73-2.6-6.29-3.77-17.52-4-23.83-1.18-39.68,9.06-65.91,9.77-106.44.81-35.61-1.64-73.36-10.76-111.88-5.84-22.46-15.29-52.94-25.31-77.05.86.18,1.73.37,2.59.57,1.6.35,3.2.73,4.8,1.11l2.31.57,2.31.58q3.46.87,6.92,1.83l2.31.64q2.31.64,4.62,1.32l4.62,1.37c10.79,3.24,21.66,6.85,32.79,10.55,32.57,10.82,66.24,22,102.23,24.81,2.52.19,5.06.29,7.56.29a101.42,101.42,0,0,0,24.12-2.95c.73-.18,1.46-.36,2.18-.56s1.52-.41,2.27-.63q2-.57,3.93-1.23a106.52,106.52,0,0,0,14.09-5.85q4.78-2.4,9.52-5.26,2.71-1.63,5.41-3.43l1.35-.91q2-1.37,4-2.84,4.35-3.15,8.72-6.73c1.15-.95,2.3-1.91,3.45-2.9.9-.77,1.8-1.56,2.71-2.37,1.36-1.21,2.72-2.44,4.08-3.71h0c1.36-1.28,2.73-2.58,4.1-3.92l6.52-6.38c6.51-6.43,13-12.93,19.43-19.41h0q4.1-4.15,8.09-8.33c1.33-1.39,2.66-2.78,4-4.18s2.63-2.8,3.93-4.2,2.59-2.81,3.87-4.21q2.34-2.55,4.62-5.12c2.28-2.54,4.52-5.09,6.75-7.66q1.86-2.15,3.71-4.31c1.22-1.44,2.45-2.88,3.66-4.33s2.42-2.9,3.62-4.35,2.4-2.92,3.59-4.39l3.55-4.41q6.23-7.8,12.21-15.82c1-1.38,2.08-2.77,3.11-4.17,0,0,0,0,0,0,1.25-1.7,2.5-3.4,3.73-5.12.71-1,1.41-1.95,2.11-2.93s1.29-1.8,1.92-2.71c1.29-1.81,2.57-3.64,3.83-5.47q2.25-3.24,4.46-6.52c.41-.59.81-1.19,1.21-1.79q2.82-4.18,5.59-8.46c.62-.95,1.24-1.89,1.85-2.85.12-.19.24-.38.37-.57q1.29-2,2.57-4c2.11-3.32,4.19-6.67,6.27-10.06.58-.93,1.15-1.87,1.71-2.81l2.61-4.32q1.38-2.31,2.76-4.66c.12-.19.23-.38.34-.58,1.08-1.82,2.14-3.65,3.21-5.5q1.94-3.34,3.85-6.73c1-1.72,1.94-3.44,2.91-5.18q5.39-9.67,10.7-19.78a22.11,22.11,0,0,0,1.39-3.21c.13-.36.24-.72.34-1.07.26-.86.44-1.67.59-2.4s.27-1.5.36-2.08c0-.1,0-.2,0-.29a2.93,2.93,0,0,1,0-.29l.57-2.66c17.11-3.89,28.64-16.25,28.74-35a30.68,30.68,0,0,0-4.46-16.61l-1.4-17a35.35,35.35,0,0,0-3.85-13.32l-.19-.36-.11-.18-.15-.29c-.12-.2-.24-.42-.39-.65a38,38,0,0,0-5.71-7.53l-.05-.05,0,0c-.55-.56-1.31-1.31-2.2-2.1a47.75,47.75,0,0,0-8.38-5.94c-1-.55-1.95-1.07-3-1.56s-2.29-1.08-3.47-1.56c9.31-8.65,17.73-20.32,20.19-31.51.26-1.21-.12-.85-.52-1.68-47.62-46.63-96.18-91.24-141.85-140.67-9.1-10.54-33.09-11.21-46.7-8.72h0c-34.34,6-72,12.92-107.19,18.1-8.9,1.3-18,3.85-27.13,1.34-20-5.54-28.94-17.15-21.56-38.5,1.07-3.1,6.94-8,10.66-11.39,6.35-5.74,14.1-15.61,22.37-19,6.89-2.81,5.47-3.15,13.84-4.27,51.29-6.73,106.41-5.55,158.43-8.44,4.79-1.2,17.37,4.14,19.72,4.56,7.62,1.36,21.3,13.64,22.85,15,11.91,10.46,11.89,11.33,23.86,20.54C753,396.14,797.14,433.7,831.69,474.43c3.28,4.23,6.1,8.75,9.31,13,13.69,19.26,16.28,53.45,12.3,76.21C840,632,764.52,724.69,735.16,799.64,708.77,864,711.73,936.23,710.71,1005Z"/><path class="cls-1" d="M775.4,603.18a36.42,36.42,0,0,0-12.6-1.82h0c-.5,0-1,.06-1.5.1-.34,0-.69.07-1,.12s-.55.07-.83.12c-.83.12-1.67.27-2.49.47l-.32.07a35.09,35.09,0,0,0-4.24,1.29c-1,.37-2,.78-3,1.24s-2.06,1-3.06,1.61c-.31.18-.61.37-.91.56s-.7.44-1,.67-.64.43-.95.66a32.67,32.67,0,0,0-2.69,2.13c-.26.22-.51.44-.76.68l-.55.52C720.71,630,728.26,660,752.26,669.48c-38,82.28-90,143.18-150.65,202.09-11.55,11.27-24.68,21.79-39.16,29a87.2,87.2,0,0,1-39,9.41c-63-2.55-119.83-35.18-181.41-45.57-6.28-14.83-13.61-28-15.52-44.47-4.11-31.9,10.52-61.68,43.13-69.62a13.69,13.69,0,0,1,5.74-1.13c37.09,5.53,74.62,18.18,101.74,45.1,7.06,7.12,14.81,14.9,25.32,15.91h.11a50.75,50.75,0,0,0,15.75-.53l1-.18a111,111,0,0,0,19.75-6.2c38.33-15,72.58-38.83,103.38-65.87,16.85-15.34,34.74-30.51,44.23-51.76,10.92-23.54,6-43.88,7.22-68.3.07-16.59,5.25-25.67,21-32.18.51-.23,1-.44,1.54-.64a58.82,58.82,0,0,1,7.34-2.4c.89-.21,1.78-.43,2.67-.61l.18,0,1.28-.25a57.59,57.59,0,0,1,8.38-.92c1.21-.07,2.4-.07,3.6,0l.75,0,.57,0,1.1.06c11.51.73,24.49,4.84,30.75,15.29.12.17.2.35.31.54A18.43,18.43,0,0,1,775.4,603.18Z"/><path class="cls-1" d="M505.41,793.46l.09,0h0Zm10.08-.49-.2,0,.41-.07Zm98,90.76c-1.37,1.34-2.74,2.64-4.1,3.92,3.59-3.34,7.09-6.86,10.62-10.3Zm25.95-25.8q4.11-4.15,8.09-8.33Q643.53,853.79,639.43,857.93Zm24.48-26c2.29-2.54,4.53-5.09,6.75-7.66C668.43,826.8,666.19,829.35,663.91,831.89Zm124.29-244-.16-.29.15.29.11.18Z"/></svg>